G04 #@! TF.GenerationSoftware,KiCad,Pcbnew,(5.1.5-0-10_14)*
G04 #@! TF.CreationDate,2020-01-02T14:17:50-08:00*
G04 #@! TF.ProjectId,SpectrumAnalyzer,53706563-7472-4756-9d41-6e616c797a65,rev?*
G04 #@! TF.SameCoordinates,Original*
G04 #@! TF.FileFunction,Copper,L2,Bot*
G04 #@! TF.FilePolarity,Positive*
%FSLAX46Y46*%
G04 Gerber Fmt 4.6, Leading zero omitted, Abs format (unit mm)*
G04 Created by KiCad (PCBNEW (5.1.5-0-10_14)) date 2020-01-02 14:17:50*
%MOMM*%
%LPD*%
G04 APERTURE LIST*
%ADD10O,1.700000X1.700000*%
%ADD11R,1.700000X1.700000*%
%ADD12C,1.600000*%
%ADD13R,1.600000X1.600000*%
%ADD14C,0.800000*%
%ADD15C,2.032000*%
%ADD16C,0.762000*%
G04 APERTURE END LIST*
D10*
X219837000Y-139700000D03*
X219837000Y-137160000D03*
D11*
X219837000Y-134620000D03*
D10*
X65506600Y-87630000D03*
X65506600Y-85090000D03*
D11*
X65506600Y-82550000D03*
D12*
X68580000Y-97710000D03*
D13*
X68580000Y-92710000D03*
D14*
X78613000Y-78867000D03*
X78740000Y-147320000D03*
X87630000Y-78740000D03*
X87630000Y-147320000D03*
X96520000Y-78740000D03*
X96520000Y-147320000D03*
X105410000Y-78740000D03*
X114300000Y-78740000D03*
X105410000Y-147320000D03*
X123190000Y-78740000D03*
X114300000Y-147320000D03*
X123190000Y-147320000D03*
X132080000Y-78740000D03*
X140970000Y-78740000D03*
X149860000Y-78740000D03*
X158750000Y-78740000D03*
X167640000Y-78740000D03*
X176530000Y-78740000D03*
X185420000Y-78740000D03*
X194310000Y-78740000D03*
X203200000Y-78740000D03*
X212090000Y-78740000D03*
X203200000Y-147320000D03*
X132080000Y-147320000D03*
X140970000Y-147320000D03*
X158750000Y-147320000D03*
X167640000Y-147320000D03*
X176530000Y-147320000D03*
X185420000Y-147320000D03*
X194310000Y-147320000D03*
X149860000Y-147320000D03*
D15*
X71501000Y-149733000D02*
X66563999Y-144795999D01*
X215900000Y-149733000D02*
X71501000Y-149733000D01*
X66563999Y-144795999D02*
X66563999Y-94726001D01*
X221903001Y-136168319D02*
X221903001Y-143729999D01*
X66563999Y-94726001D02*
X68580000Y-92710000D01*
X220354682Y-134620000D02*
X221903001Y-136168319D01*
X221903001Y-143729999D02*
X215900000Y-149733000D01*
X219837000Y-134620000D02*
X220354682Y-134620000D01*
D16*
X71120000Y-86360000D02*
X78613000Y-78867000D01*
X69850000Y-87630000D02*
X71120000Y-86360000D01*
X65506600Y-87630000D02*
X69850000Y-87630000D01*
X78740000Y-147320000D02*
X78740000Y-81915000D01*
X81915000Y-78740000D02*
X87630000Y-78740000D01*
X78740000Y-81915000D02*
X81915000Y-78740000D01*
X87630000Y-147320000D02*
X87630000Y-82550000D01*
X87630000Y-82550000D02*
X87630000Y-81280000D01*
X87630000Y-81280000D02*
X90170000Y-78740000D01*
X90170000Y-78740000D02*
X96520000Y-78740000D01*
X96520000Y-147320000D02*
X96520000Y-82550000D01*
X99060000Y-78740000D02*
X105410000Y-78740000D01*
X96520000Y-82550000D02*
X96520000Y-81280000D01*
X96520000Y-81280000D02*
X99060000Y-78740000D01*
X107950000Y-78740000D02*
X114300000Y-78740000D01*
X105410000Y-147320000D02*
X105410000Y-82550000D01*
X105410000Y-82550000D02*
X105410000Y-81280000D01*
X105410000Y-81280000D02*
X107950000Y-78740000D01*
X116840000Y-78740000D02*
X123190000Y-78740000D01*
X114300000Y-82550000D02*
X114300000Y-81280000D01*
X114300000Y-81280000D02*
X116840000Y-78740000D01*
X114300000Y-147320000D02*
X114300000Y-82550000D01*
X123190000Y-81280000D02*
X125730000Y-78740000D01*
X125730000Y-78740000D02*
X132080000Y-78740000D01*
X123190000Y-82550000D02*
X123190000Y-81280000D01*
X123190000Y-147320000D02*
X123190000Y-82550000D01*
X134620000Y-78740000D02*
X140970000Y-78740000D01*
X132080000Y-81280000D02*
X134620000Y-78740000D01*
X132080000Y-82550000D02*
X132080000Y-81280000D01*
X132080000Y-147320000D02*
X132080000Y-82550000D01*
X140970000Y-81280000D02*
X143510000Y-78740000D01*
X140970000Y-147320000D02*
X140970000Y-82550000D01*
X140970000Y-82550000D02*
X140970000Y-81280000D01*
X143510000Y-78740000D02*
X149860000Y-78740000D01*
X152400000Y-78740000D02*
X158750000Y-78740000D01*
X149860000Y-147320000D02*
X149860000Y-82550000D01*
X149860000Y-81280000D02*
X152400000Y-78740000D01*
X149860000Y-82550000D02*
X149860000Y-81280000D01*
X158750000Y-147320000D02*
X158750000Y-82550000D01*
X161290000Y-78740000D02*
X167640000Y-78740000D01*
X158750000Y-81280000D02*
X161290000Y-78740000D01*
X158750000Y-82550000D02*
X158750000Y-81280000D01*
X167640000Y-147320000D02*
X167640000Y-82550000D01*
X167640000Y-81280000D02*
X170180000Y-78740000D01*
X170180000Y-78740000D02*
X176530000Y-78740000D01*
X167640000Y-82550000D02*
X167640000Y-81280000D01*
X176530000Y-81280000D02*
X179070000Y-78740000D01*
X176530000Y-147320000D02*
X176530000Y-82550000D01*
X179070000Y-78740000D02*
X185420000Y-78740000D01*
X176530000Y-82550000D02*
X176530000Y-81280000D01*
X185420000Y-81280000D02*
X187960000Y-78740000D01*
X187960000Y-78740000D02*
X194310000Y-78740000D01*
X185420000Y-147320000D02*
X185420000Y-82550000D01*
X185420000Y-82550000D02*
X185420000Y-81280000D01*
X194310000Y-81280000D02*
X196850000Y-78740000D01*
X194310000Y-147320000D02*
X194310000Y-82550000D01*
X194310000Y-82550000D02*
X194310000Y-81280000D01*
X196850000Y-78740000D02*
X203200000Y-78740000D01*
X203200000Y-81280000D02*
X205740000Y-78740000D01*
X203200000Y-82550000D02*
X203200000Y-81280000D01*
X205740000Y-78740000D02*
X212090000Y-78740000D01*
X203200000Y-147320000D02*
X203200000Y-82550000D01*
M02*
