M48
; DRILL file {KiCad (5.1.5-0-10_14)} date Thursday, January 02, 2020 at 02:17:53 PM
; FORMAT={-:-/ absolute / inch / decimal}
; #@! TF.CreationDate,2020-01-02T14:17:53-08:00
; #@! TF.GenerationSoftware,Kicad,Pcbnew,(5.1.5-0-10_14)
; #@! TF.FileFunction,Plated,1,2,PTH
FMAT,2
INCH
T1C0.0157
T2C0.0315
T3C0.0394
%
G90
G05
T1
X3.095Y-3.105
X3.1Y-5.8
X3.45Y-3.1
X3.45Y-5.8
X3.8Y-3.1
X3.8Y-5.8
X4.15Y-3.1
X4.15Y-5.8
X4.5Y-3.1
X4.5Y-5.8
X4.85Y-3.1
X4.85Y-5.8
X5.2Y-3.1
X5.2Y-5.8
X5.55Y-3.1
X5.55Y-5.8
X5.9Y-3.1
X5.9Y-5.8
X6.25Y-3.1
X6.25Y-5.8
X6.6Y-3.1
X6.6Y-5.8
X6.95Y-3.1
X6.95Y-5.8
X7.3Y-3.1
X7.3Y-5.8
X7.65Y-3.1
X7.65Y-5.8
X8.0Y-3.1
X8.0Y-5.8
X8.35Y-3.1
T2
X2.7Y-3.65
X2.7Y-3.8469
T3
X8.655Y-5.3
X8.655Y-5.4
X8.655Y-5.5
X2.579Y-3.25
X2.579Y-3.35
X2.579Y-3.45
T0
M30
