G04 #@! TF.GenerationSoftware,KiCad,Pcbnew,(5.1.5-0-10_14)*
G04 #@! TF.CreationDate,2020-01-02T14:17:50-08:00*
G04 #@! TF.ProjectId,SpectrumAnalyzer,53706563-7472-4756-9d41-6e616c797a65,rev?*
G04 #@! TF.SameCoordinates,Original*
G04 #@! TF.FileFunction,Soldermask,Bot*
G04 #@! TF.FilePolarity,Negative*
%FSLAX46Y46*%
G04 Gerber Fmt 4.6, Leading zero omitted, Abs format (unit mm)*
G04 Created by KiCad (PCBNEW (5.1.5-0-10_14)) date 2020-01-02 14:17:50*
%MOMM*%
%LPD*%
G04 APERTURE LIST*
%ADD10C,0.100000*%
G04 APERTURE END LIST*
D10*
G36*
X220978487Y-148481996D02*
G01*
X221215253Y-148580068D01*
X221215255Y-148580069D01*
X221428339Y-148722447D01*
X221609553Y-148903661D01*
X221751932Y-149116747D01*
X221850004Y-149353513D01*
X221900000Y-149604861D01*
X221900000Y-149861139D01*
X221850004Y-150112487D01*
X221804537Y-150222253D01*
X221751931Y-150349255D01*
X221609553Y-150562339D01*
X221428339Y-150743553D01*
X221215255Y-150885931D01*
X221215254Y-150885932D01*
X221215253Y-150885932D01*
X220978487Y-150984004D01*
X220727139Y-151034000D01*
X220470861Y-151034000D01*
X220219513Y-150984004D01*
X219982747Y-150885932D01*
X219982746Y-150885932D01*
X219982745Y-150885931D01*
X219769661Y-150743553D01*
X219588447Y-150562339D01*
X219446069Y-150349255D01*
X219393463Y-150222253D01*
X219347996Y-150112487D01*
X219298000Y-149861139D01*
X219298000Y-149604861D01*
X219347996Y-149353513D01*
X219446068Y-149116747D01*
X219588447Y-148903661D01*
X219769661Y-148722447D01*
X219982745Y-148580069D01*
X219982747Y-148580068D01*
X220219513Y-148481996D01*
X220470861Y-148432000D01*
X220727139Y-148432000D01*
X220978487Y-148481996D01*
G37*
G36*
X65530487Y-148354996D02*
G01*
X65767253Y-148453068D01*
X65767255Y-148453069D01*
X65980339Y-148595447D01*
X66161553Y-148776661D01*
X66246412Y-148903661D01*
X66303932Y-148989747D01*
X66402004Y-149226513D01*
X66452000Y-149477861D01*
X66452000Y-149734139D01*
X66402004Y-149985487D01*
X66349398Y-150112488D01*
X66303931Y-150222255D01*
X66161553Y-150435339D01*
X65980339Y-150616553D01*
X65767255Y-150758931D01*
X65767254Y-150758932D01*
X65767253Y-150758932D01*
X65530487Y-150857004D01*
X65279139Y-150907000D01*
X65022861Y-150907000D01*
X64771513Y-150857004D01*
X64534747Y-150758932D01*
X64534746Y-150758932D01*
X64534745Y-150758931D01*
X64321661Y-150616553D01*
X64140447Y-150435339D01*
X63998069Y-150222255D01*
X63952602Y-150112488D01*
X63899996Y-149985487D01*
X63850000Y-149734139D01*
X63850000Y-149477861D01*
X63899996Y-149226513D01*
X63998068Y-148989747D01*
X64055589Y-148903661D01*
X64140447Y-148776661D01*
X64321661Y-148595447D01*
X64534745Y-148453069D01*
X64534747Y-148453068D01*
X64771513Y-148354996D01*
X65022861Y-148305000D01*
X65279139Y-148305000D01*
X65530487Y-148354996D01*
G37*
G36*
X219950512Y-138803927D02*
G01*
X220099812Y-138833624D01*
X220263784Y-138901544D01*
X220411354Y-139000147D01*
X220536853Y-139125646D01*
X220635456Y-139273216D01*
X220703376Y-139437188D01*
X220738000Y-139611259D01*
X220738000Y-139788741D01*
X220703376Y-139962812D01*
X220635456Y-140126784D01*
X220536853Y-140274354D01*
X220411354Y-140399853D01*
X220263784Y-140498456D01*
X220099812Y-140566376D01*
X219950512Y-140596073D01*
X219925742Y-140601000D01*
X219748258Y-140601000D01*
X219723488Y-140596073D01*
X219574188Y-140566376D01*
X219410216Y-140498456D01*
X219262646Y-140399853D01*
X219137147Y-140274354D01*
X219038544Y-140126784D01*
X218970624Y-139962812D01*
X218936000Y-139788741D01*
X218936000Y-139611259D01*
X218970624Y-139437188D01*
X219038544Y-139273216D01*
X219137147Y-139125646D01*
X219262646Y-139000147D01*
X219410216Y-138901544D01*
X219574188Y-138833624D01*
X219723488Y-138803927D01*
X219748258Y-138799000D01*
X219925742Y-138799000D01*
X219950512Y-138803927D01*
G37*
G36*
X219950512Y-136263927D02*
G01*
X220099812Y-136293624D01*
X220263784Y-136361544D01*
X220411354Y-136460147D01*
X220536853Y-136585646D01*
X220635456Y-136733216D01*
X220703376Y-136897188D01*
X220738000Y-137071259D01*
X220738000Y-137248741D01*
X220703376Y-137422812D01*
X220635456Y-137586784D01*
X220536853Y-137734354D01*
X220411354Y-137859853D01*
X220263784Y-137958456D01*
X220099812Y-138026376D01*
X219950512Y-138056073D01*
X219925742Y-138061000D01*
X219748258Y-138061000D01*
X219723488Y-138056073D01*
X219574188Y-138026376D01*
X219410216Y-137958456D01*
X219262646Y-137859853D01*
X219137147Y-137734354D01*
X219038544Y-137586784D01*
X218970624Y-137422812D01*
X218936000Y-137248741D01*
X218936000Y-137071259D01*
X218970624Y-136897188D01*
X219038544Y-136733216D01*
X219137147Y-136585646D01*
X219262646Y-136460147D01*
X219410216Y-136361544D01*
X219574188Y-136293624D01*
X219723488Y-136263927D01*
X219748258Y-136259000D01*
X219925742Y-136259000D01*
X219950512Y-136263927D01*
G37*
G36*
X220738000Y-135521000D02*
G01*
X218936000Y-135521000D01*
X218936000Y-133719000D01*
X220738000Y-133719000D01*
X220738000Y-135521000D01*
G37*
G36*
X68828228Y-96891703D02*
G01*
X68983100Y-96955853D01*
X69122481Y-97048985D01*
X69241015Y-97167519D01*
X69334147Y-97306900D01*
X69398297Y-97461772D01*
X69431000Y-97626184D01*
X69431000Y-97793816D01*
X69398297Y-97958228D01*
X69334147Y-98113100D01*
X69241015Y-98252481D01*
X69122481Y-98371015D01*
X68983100Y-98464147D01*
X68828228Y-98528297D01*
X68663816Y-98561000D01*
X68496184Y-98561000D01*
X68331772Y-98528297D01*
X68176900Y-98464147D01*
X68037519Y-98371015D01*
X67918985Y-98252481D01*
X67825853Y-98113100D01*
X67761703Y-97958228D01*
X67729000Y-97793816D01*
X67729000Y-97626184D01*
X67761703Y-97461772D01*
X67825853Y-97306900D01*
X67918985Y-97167519D01*
X68037519Y-97048985D01*
X68176900Y-96955853D01*
X68331772Y-96891703D01*
X68496184Y-96859000D01*
X68663816Y-96859000D01*
X68828228Y-96891703D01*
G37*
G36*
X69431000Y-93561000D02*
G01*
X67729000Y-93561000D01*
X67729000Y-91859000D01*
X69431000Y-91859000D01*
X69431000Y-93561000D01*
G37*
G36*
X65620112Y-86733927D02*
G01*
X65769412Y-86763624D01*
X65933384Y-86831544D01*
X66080954Y-86930147D01*
X66206453Y-87055646D01*
X66305056Y-87203216D01*
X66372976Y-87367188D01*
X66407600Y-87541259D01*
X66407600Y-87718741D01*
X66372976Y-87892812D01*
X66305056Y-88056784D01*
X66206453Y-88204354D01*
X66080954Y-88329853D01*
X65933384Y-88428456D01*
X65769412Y-88496376D01*
X65620112Y-88526073D01*
X65595342Y-88531000D01*
X65417858Y-88531000D01*
X65393088Y-88526073D01*
X65243788Y-88496376D01*
X65079816Y-88428456D01*
X64932246Y-88329853D01*
X64806747Y-88204354D01*
X64708144Y-88056784D01*
X64640224Y-87892812D01*
X64605600Y-87718741D01*
X64605600Y-87541259D01*
X64640224Y-87367188D01*
X64708144Y-87203216D01*
X64806747Y-87055646D01*
X64932246Y-86930147D01*
X65079816Y-86831544D01*
X65243788Y-86763624D01*
X65393088Y-86733927D01*
X65417858Y-86729000D01*
X65595342Y-86729000D01*
X65620112Y-86733927D01*
G37*
G36*
X65620112Y-84193927D02*
G01*
X65769412Y-84223624D01*
X65933384Y-84291544D01*
X66080954Y-84390147D01*
X66206453Y-84515646D01*
X66305056Y-84663216D01*
X66372976Y-84827188D01*
X66407600Y-85001259D01*
X66407600Y-85178741D01*
X66372976Y-85352812D01*
X66305056Y-85516784D01*
X66206453Y-85664354D01*
X66080954Y-85789853D01*
X65933384Y-85888456D01*
X65769412Y-85956376D01*
X65620112Y-85986073D01*
X65595342Y-85991000D01*
X65417858Y-85991000D01*
X65393088Y-85986073D01*
X65243788Y-85956376D01*
X65079816Y-85888456D01*
X64932246Y-85789853D01*
X64806747Y-85664354D01*
X64708144Y-85516784D01*
X64640224Y-85352812D01*
X64605600Y-85178741D01*
X64605600Y-85001259D01*
X64640224Y-84827188D01*
X64708144Y-84663216D01*
X64806747Y-84515646D01*
X64932246Y-84390147D01*
X65079816Y-84291544D01*
X65243788Y-84223624D01*
X65393088Y-84193927D01*
X65417858Y-84189000D01*
X65595342Y-84189000D01*
X65620112Y-84193927D01*
G37*
G36*
X66407600Y-83451000D02*
G01*
X64605600Y-83451000D01*
X64605600Y-81649000D01*
X66407600Y-81649000D01*
X66407600Y-83451000D01*
G37*
G36*
X220978487Y-76599996D02*
G01*
X221215253Y-76698068D01*
X221215255Y-76698069D01*
X221428339Y-76840447D01*
X221609553Y-77021661D01*
X221751932Y-77234747D01*
X221850004Y-77471513D01*
X221900000Y-77722861D01*
X221900000Y-77979139D01*
X221850004Y-78230487D01*
X221751932Y-78467253D01*
X221751931Y-78467255D01*
X221609553Y-78680339D01*
X221428339Y-78861553D01*
X221215255Y-79003931D01*
X221215254Y-79003932D01*
X221215253Y-79003932D01*
X220978487Y-79102004D01*
X220727139Y-79152000D01*
X220470861Y-79152000D01*
X220219513Y-79102004D01*
X219982747Y-79003932D01*
X219982746Y-79003932D01*
X219982745Y-79003931D01*
X219769661Y-78861553D01*
X219588447Y-78680339D01*
X219446069Y-78467255D01*
X219446068Y-78467253D01*
X219347996Y-78230487D01*
X219298000Y-77979139D01*
X219298000Y-77722861D01*
X219347996Y-77471513D01*
X219446068Y-77234747D01*
X219588447Y-77021661D01*
X219769661Y-76840447D01*
X219982745Y-76698069D01*
X219982747Y-76698068D01*
X220219513Y-76599996D01*
X220470861Y-76550000D01*
X220727139Y-76550000D01*
X220978487Y-76599996D01*
G37*
G36*
X65657487Y-76599996D02*
G01*
X65894253Y-76698068D01*
X65894255Y-76698069D01*
X66107339Y-76840447D01*
X66288553Y-77021661D01*
X66430932Y-77234747D01*
X66529004Y-77471513D01*
X66579000Y-77722861D01*
X66579000Y-77979139D01*
X66529004Y-78230487D01*
X66430932Y-78467253D01*
X66430931Y-78467255D01*
X66288553Y-78680339D01*
X66107339Y-78861553D01*
X65894255Y-79003931D01*
X65894254Y-79003932D01*
X65894253Y-79003932D01*
X65657487Y-79102004D01*
X65406139Y-79152000D01*
X65149861Y-79152000D01*
X64898513Y-79102004D01*
X64661747Y-79003932D01*
X64661746Y-79003932D01*
X64661745Y-79003931D01*
X64448661Y-78861553D01*
X64267447Y-78680339D01*
X64125069Y-78467255D01*
X64125068Y-78467253D01*
X64026996Y-78230487D01*
X63977000Y-77979139D01*
X63977000Y-77722861D01*
X64026996Y-77471513D01*
X64125068Y-77234747D01*
X64267447Y-77021661D01*
X64448661Y-76840447D01*
X64661745Y-76698069D01*
X64661747Y-76698068D01*
X64898513Y-76599996D01*
X65149861Y-76550000D01*
X65406139Y-76550000D01*
X65657487Y-76599996D01*
G37*
M02*
