G04 #@! TF.GenerationSoftware,KiCad,Pcbnew,(5.1.5-0-10_14)*
G04 #@! TF.CreationDate,2020-01-02T14:17:50-08:00*
G04 #@! TF.ProjectId,SpectrumAnalyzer,53706563-7472-4756-9d41-6e616c797a65,rev?*
G04 #@! TF.SameCoordinates,Original*
G04 #@! TF.FileFunction,Paste,Top*
G04 #@! TF.FilePolarity,Positive*
%FSLAX46Y46*%
G04 Gerber Fmt 4.6, Leading zero omitted, Abs format (unit mm)*
G04 Created by KiCad (PCBNEW (5.1.5-0-10_14)) date 2020-01-02 14:17:50*
%MOMM*%
%LPD*%
G04 APERTURE LIST*
%ADD10R,1.500000X1.000000*%
G04 APERTURE END LIST*
D10*
X209640000Y-145720000D03*
X209640000Y-148920000D03*
X214540000Y-145720000D03*
X214540000Y-148920000D03*
X209640000Y-138100000D03*
X209640000Y-141300000D03*
X214540000Y-138100000D03*
X214540000Y-141300000D03*
X209640000Y-130480000D03*
X209640000Y-133680000D03*
X214540000Y-130480000D03*
X214540000Y-133680000D03*
X209640000Y-122860000D03*
X209640000Y-126060000D03*
X214540000Y-122860000D03*
X214540000Y-126060000D03*
X209640000Y-115240000D03*
X209640000Y-118440000D03*
X214540000Y-115240000D03*
X214540000Y-118440000D03*
X209640000Y-107620000D03*
X209640000Y-110820000D03*
X214540000Y-107620000D03*
X214540000Y-110820000D03*
X209640000Y-100000000D03*
X209640000Y-103200000D03*
X214540000Y-100000000D03*
X214540000Y-103200000D03*
X209640000Y-92380000D03*
X209640000Y-95580000D03*
X214540000Y-92380000D03*
X214540000Y-95580000D03*
X209640000Y-84760000D03*
X209640000Y-87960000D03*
X214540000Y-84760000D03*
X214540000Y-87960000D03*
X209640000Y-77140000D03*
X209640000Y-80340000D03*
X214540000Y-77140000D03*
X214540000Y-80340000D03*
X200750000Y-145720000D03*
X200750000Y-148920000D03*
X205650000Y-145720000D03*
X205650000Y-148920000D03*
X200750000Y-138100000D03*
X200750000Y-141300000D03*
X205650000Y-138100000D03*
X205650000Y-141300000D03*
X200750000Y-130480000D03*
X200750000Y-133680000D03*
X205650000Y-130480000D03*
X205650000Y-133680000D03*
X200750000Y-122860000D03*
X200750000Y-126060000D03*
X205650000Y-122860000D03*
X205650000Y-126060000D03*
X200750000Y-115240000D03*
X200750000Y-118440000D03*
X205650000Y-115240000D03*
X205650000Y-118440000D03*
X200750000Y-107620000D03*
X200750000Y-110820000D03*
X205650000Y-107620000D03*
X205650000Y-110820000D03*
X200750000Y-100000000D03*
X200750000Y-103200000D03*
X205650000Y-100000000D03*
X205650000Y-103200000D03*
X200750000Y-92380000D03*
X200750000Y-95580000D03*
X205650000Y-92380000D03*
X205650000Y-95580000D03*
X200750000Y-84760000D03*
X200750000Y-87960000D03*
X205650000Y-84760000D03*
X205650000Y-87960000D03*
X200750000Y-77140000D03*
X200750000Y-80340000D03*
X205650000Y-77140000D03*
X205650000Y-80340000D03*
X191860000Y-145720000D03*
X191860000Y-148920000D03*
X196760000Y-145720000D03*
X196760000Y-148920000D03*
X191860000Y-138100000D03*
X191860000Y-141300000D03*
X196760000Y-138100000D03*
X196760000Y-141300000D03*
X191860000Y-130480000D03*
X191860000Y-133680000D03*
X196760000Y-130480000D03*
X196760000Y-133680000D03*
X191860000Y-122860000D03*
X191860000Y-126060000D03*
X196760000Y-122860000D03*
X196760000Y-126060000D03*
X191860000Y-115240000D03*
X191860000Y-118440000D03*
X196760000Y-115240000D03*
X196760000Y-118440000D03*
X191860000Y-107620000D03*
X191860000Y-110820000D03*
X196760000Y-107620000D03*
X196760000Y-110820000D03*
X191860000Y-100000000D03*
X191860000Y-103200000D03*
X196760000Y-100000000D03*
X196760000Y-103200000D03*
X191860000Y-92380000D03*
X191860000Y-95580000D03*
X196760000Y-92380000D03*
X196760000Y-95580000D03*
X191860000Y-84760000D03*
X191860000Y-87960000D03*
X196760000Y-84760000D03*
X196760000Y-87960000D03*
X191860000Y-77140000D03*
X191860000Y-80340000D03*
X196760000Y-77140000D03*
X196760000Y-80340000D03*
X182970000Y-145720000D03*
X182970000Y-148920000D03*
X187870000Y-145720000D03*
X187870000Y-148920000D03*
X182970000Y-138100000D03*
X182970000Y-141300000D03*
X187870000Y-138100000D03*
X187870000Y-141300000D03*
X182970000Y-130480000D03*
X182970000Y-133680000D03*
X187870000Y-130480000D03*
X187870000Y-133680000D03*
X182970000Y-122860000D03*
X182970000Y-126060000D03*
X187870000Y-122860000D03*
X187870000Y-126060000D03*
X182970000Y-115240000D03*
X182970000Y-118440000D03*
X187870000Y-115240000D03*
X187870000Y-118440000D03*
X182970000Y-107620000D03*
X182970000Y-110820000D03*
X187870000Y-107620000D03*
X187870000Y-110820000D03*
X182970000Y-100000000D03*
X182970000Y-103200000D03*
X187870000Y-100000000D03*
X187870000Y-103200000D03*
X182970000Y-92380000D03*
X182970000Y-95580000D03*
X187870000Y-92380000D03*
X187870000Y-95580000D03*
X182970000Y-84760000D03*
X182970000Y-87960000D03*
X187870000Y-84760000D03*
X187870000Y-87960000D03*
X182970000Y-77140000D03*
X182970000Y-80340000D03*
X187870000Y-77140000D03*
X187870000Y-80340000D03*
X174080000Y-145720000D03*
X174080000Y-148920000D03*
X178980000Y-145720000D03*
X178980000Y-148920000D03*
X174080000Y-138100000D03*
X174080000Y-141300000D03*
X178980000Y-138100000D03*
X178980000Y-141300000D03*
X174080000Y-130480000D03*
X174080000Y-133680000D03*
X178980000Y-130480000D03*
X178980000Y-133680000D03*
X174080000Y-122860000D03*
X174080000Y-126060000D03*
X178980000Y-122860000D03*
X178980000Y-126060000D03*
X174080000Y-115240000D03*
X174080000Y-118440000D03*
X178980000Y-115240000D03*
X178980000Y-118440000D03*
X174080000Y-107620000D03*
X174080000Y-110820000D03*
X178980000Y-107620000D03*
X178980000Y-110820000D03*
X174080000Y-100000000D03*
X174080000Y-103200000D03*
X178980000Y-100000000D03*
X178980000Y-103200000D03*
X174080000Y-92380000D03*
X174080000Y-95580000D03*
X178980000Y-92380000D03*
X178980000Y-95580000D03*
X174080000Y-84760000D03*
X174080000Y-87960000D03*
X178980000Y-84760000D03*
X178980000Y-87960000D03*
X174080000Y-77140000D03*
X174080000Y-80340000D03*
X178980000Y-77140000D03*
X178980000Y-80340000D03*
X165190000Y-145720000D03*
X165190000Y-148920000D03*
X170090000Y-145720000D03*
X170090000Y-148920000D03*
X165190000Y-138100000D03*
X165190000Y-141300000D03*
X170090000Y-138100000D03*
X170090000Y-141300000D03*
X165190000Y-130480000D03*
X165190000Y-133680000D03*
X170090000Y-130480000D03*
X170090000Y-133680000D03*
X165190000Y-122860000D03*
X165190000Y-126060000D03*
X170090000Y-122860000D03*
X170090000Y-126060000D03*
X165190000Y-115240000D03*
X165190000Y-118440000D03*
X170090000Y-115240000D03*
X170090000Y-118440000D03*
X165190000Y-107620000D03*
X165190000Y-110820000D03*
X170090000Y-107620000D03*
X170090000Y-110820000D03*
X165190000Y-100000000D03*
X165190000Y-103200000D03*
X170090000Y-100000000D03*
X170090000Y-103200000D03*
X165190000Y-92380000D03*
X165190000Y-95580000D03*
X170090000Y-92380000D03*
X170090000Y-95580000D03*
X165190000Y-84760000D03*
X165190000Y-87960000D03*
X170090000Y-84760000D03*
X170090000Y-87960000D03*
X165190000Y-77140000D03*
X165190000Y-80340000D03*
X170090000Y-77140000D03*
X170090000Y-80340000D03*
X156300000Y-145720000D03*
X156300000Y-148920000D03*
X161200000Y-145720000D03*
X161200000Y-148920000D03*
X156300000Y-138100000D03*
X156300000Y-141300000D03*
X161200000Y-138100000D03*
X161200000Y-141300000D03*
X156300000Y-130480000D03*
X156300000Y-133680000D03*
X161200000Y-130480000D03*
X161200000Y-133680000D03*
X156300000Y-122860000D03*
X156300000Y-126060000D03*
X161200000Y-122860000D03*
X161200000Y-126060000D03*
X156300000Y-115240000D03*
X156300000Y-118440000D03*
X161200000Y-115240000D03*
X161200000Y-118440000D03*
X156300000Y-107620000D03*
X156300000Y-110820000D03*
X161200000Y-107620000D03*
X161200000Y-110820000D03*
X156300000Y-100000000D03*
X156300000Y-103200000D03*
X161200000Y-100000000D03*
X161200000Y-103200000D03*
X156300000Y-92380000D03*
X156300000Y-95580000D03*
X161200000Y-92380000D03*
X161200000Y-95580000D03*
X156300000Y-84760000D03*
X156300000Y-87960000D03*
X161200000Y-84760000D03*
X161200000Y-87960000D03*
X156300000Y-77140000D03*
X156300000Y-80340000D03*
X161200000Y-77140000D03*
X161200000Y-80340000D03*
X147410000Y-145720000D03*
X147410000Y-148920000D03*
X152310000Y-145720000D03*
X152310000Y-148920000D03*
X147410000Y-138100000D03*
X147410000Y-141300000D03*
X152310000Y-138100000D03*
X152310000Y-141300000D03*
X147410000Y-130480000D03*
X147410000Y-133680000D03*
X152310000Y-130480000D03*
X152310000Y-133680000D03*
X147410000Y-122860000D03*
X147410000Y-126060000D03*
X152310000Y-122860000D03*
X152310000Y-126060000D03*
X147410000Y-115240000D03*
X147410000Y-118440000D03*
X152310000Y-115240000D03*
X152310000Y-118440000D03*
X147410000Y-107620000D03*
X147410000Y-110820000D03*
X152310000Y-107620000D03*
X152310000Y-110820000D03*
X147410000Y-100000000D03*
X147410000Y-103200000D03*
X152310000Y-100000000D03*
X152310000Y-103200000D03*
X147410000Y-92380000D03*
X147410000Y-95580000D03*
X152310000Y-92380000D03*
X152310000Y-95580000D03*
X147410000Y-84760000D03*
X147410000Y-87960000D03*
X152310000Y-84760000D03*
X152310000Y-87960000D03*
X147410000Y-77140000D03*
X147410000Y-80340000D03*
X152310000Y-77140000D03*
X152310000Y-80340000D03*
X138520000Y-145720000D03*
X138520000Y-148920000D03*
X143420000Y-145720000D03*
X143420000Y-148920000D03*
X138520000Y-138100000D03*
X138520000Y-141300000D03*
X143420000Y-138100000D03*
X143420000Y-141300000D03*
X138520000Y-130480000D03*
X138520000Y-133680000D03*
X143420000Y-130480000D03*
X143420000Y-133680000D03*
X138520000Y-122860000D03*
X138520000Y-126060000D03*
X143420000Y-122860000D03*
X143420000Y-126060000D03*
X138520000Y-115240000D03*
X138520000Y-118440000D03*
X143420000Y-115240000D03*
X143420000Y-118440000D03*
X138520000Y-107620000D03*
X138520000Y-110820000D03*
X143420000Y-107620000D03*
X143420000Y-110820000D03*
X138520000Y-100000000D03*
X138520000Y-103200000D03*
X143420000Y-100000000D03*
X143420000Y-103200000D03*
X138520000Y-92380000D03*
X138520000Y-95580000D03*
X143420000Y-92380000D03*
X143420000Y-95580000D03*
X138520000Y-84760000D03*
X138520000Y-87960000D03*
X143420000Y-84760000D03*
X143420000Y-87960000D03*
X138520000Y-77140000D03*
X138520000Y-80340000D03*
X143420000Y-77140000D03*
X143420000Y-80340000D03*
X129630000Y-145720000D03*
X129630000Y-148920000D03*
X134530000Y-145720000D03*
X134530000Y-148920000D03*
X129630000Y-138100000D03*
X129630000Y-141300000D03*
X134530000Y-138100000D03*
X134530000Y-141300000D03*
X129630000Y-130480000D03*
X129630000Y-133680000D03*
X134530000Y-130480000D03*
X134530000Y-133680000D03*
X129630000Y-122860000D03*
X129630000Y-126060000D03*
X134530000Y-122860000D03*
X134530000Y-126060000D03*
X129630000Y-115240000D03*
X129630000Y-118440000D03*
X134530000Y-115240000D03*
X134530000Y-118440000D03*
X129630000Y-107620000D03*
X129630000Y-110820000D03*
X134530000Y-107620000D03*
X134530000Y-110820000D03*
X129630000Y-100000000D03*
X129630000Y-103200000D03*
X134530000Y-100000000D03*
X134530000Y-103200000D03*
X129630000Y-92380000D03*
X129630000Y-95580000D03*
X134530000Y-92380000D03*
X134530000Y-95580000D03*
X129630000Y-84760000D03*
X129630000Y-87960000D03*
X134530000Y-84760000D03*
X134530000Y-87960000D03*
X129630000Y-77140000D03*
X129630000Y-80340000D03*
X134530000Y-77140000D03*
X134530000Y-80340000D03*
X120740000Y-145720000D03*
X120740000Y-148920000D03*
X125640000Y-145720000D03*
X125640000Y-148920000D03*
X120740000Y-138100000D03*
X120740000Y-141300000D03*
X125640000Y-138100000D03*
X125640000Y-141300000D03*
X120740000Y-130480000D03*
X120740000Y-133680000D03*
X125640000Y-130480000D03*
X125640000Y-133680000D03*
X120740000Y-122860000D03*
X120740000Y-126060000D03*
X125640000Y-122860000D03*
X125640000Y-126060000D03*
X120740000Y-115240000D03*
X120740000Y-118440000D03*
X125640000Y-115240000D03*
X125640000Y-118440000D03*
X120740000Y-107620000D03*
X120740000Y-110820000D03*
X125640000Y-107620000D03*
X125640000Y-110820000D03*
X120740000Y-100000000D03*
X120740000Y-103200000D03*
X125640000Y-100000000D03*
X125640000Y-103200000D03*
X120740000Y-92380000D03*
X120740000Y-95580000D03*
X125640000Y-92380000D03*
X125640000Y-95580000D03*
X120740000Y-84760000D03*
X120740000Y-87960000D03*
X125640000Y-84760000D03*
X125640000Y-87960000D03*
X120740000Y-77140000D03*
X120740000Y-80340000D03*
X125640000Y-77140000D03*
X125640000Y-80340000D03*
X111850000Y-145720000D03*
X111850000Y-148920000D03*
X116750000Y-145720000D03*
X116750000Y-148920000D03*
X111850000Y-138100000D03*
X111850000Y-141300000D03*
X116750000Y-138100000D03*
X116750000Y-141300000D03*
X111850000Y-130480000D03*
X111850000Y-133680000D03*
X116750000Y-130480000D03*
X116750000Y-133680000D03*
X111850000Y-122860000D03*
X111850000Y-126060000D03*
X116750000Y-122860000D03*
X116750000Y-126060000D03*
X111850000Y-115240000D03*
X111850000Y-118440000D03*
X116750000Y-115240000D03*
X116750000Y-118440000D03*
X111850000Y-107620000D03*
X111850000Y-110820000D03*
X116750000Y-107620000D03*
X116750000Y-110820000D03*
X111850000Y-100000000D03*
X111850000Y-103200000D03*
X116750000Y-100000000D03*
X116750000Y-103200000D03*
X111850000Y-92380000D03*
X111850000Y-95580000D03*
X116750000Y-92380000D03*
X116750000Y-95580000D03*
X111850000Y-84760000D03*
X111850000Y-87960000D03*
X116750000Y-84760000D03*
X116750000Y-87960000D03*
X111850000Y-77140000D03*
X111850000Y-80340000D03*
X116750000Y-77140000D03*
X116750000Y-80340000D03*
X102960000Y-145720000D03*
X102960000Y-148920000D03*
X107860000Y-145720000D03*
X107860000Y-148920000D03*
X102960000Y-138100000D03*
X102960000Y-141300000D03*
X107860000Y-138100000D03*
X107860000Y-141300000D03*
X102960000Y-130480000D03*
X102960000Y-133680000D03*
X107860000Y-130480000D03*
X107860000Y-133680000D03*
X102960000Y-122860000D03*
X102960000Y-126060000D03*
X107860000Y-122860000D03*
X107860000Y-126060000D03*
X102960000Y-115240000D03*
X102960000Y-118440000D03*
X107860000Y-115240000D03*
X107860000Y-118440000D03*
X102960000Y-107620000D03*
X102960000Y-110820000D03*
X107860000Y-107620000D03*
X107860000Y-110820000D03*
X102960000Y-100000000D03*
X102960000Y-103200000D03*
X107860000Y-100000000D03*
X107860000Y-103200000D03*
X102960000Y-92380000D03*
X102960000Y-95580000D03*
X107860000Y-92380000D03*
X107860000Y-95580000D03*
X102870000Y-84760000D03*
X102870000Y-87960000D03*
X107770000Y-84760000D03*
X107770000Y-87960000D03*
X102960000Y-77140000D03*
X102960000Y-80340000D03*
X107860000Y-77140000D03*
X107860000Y-80340000D03*
X94070000Y-145720000D03*
X94070000Y-148920000D03*
X98970000Y-145720000D03*
X98970000Y-148920000D03*
X94070000Y-138100000D03*
X94070000Y-141300000D03*
X98970000Y-138100000D03*
X98970000Y-141300000D03*
X94070000Y-130480000D03*
X94070000Y-133680000D03*
X98970000Y-130480000D03*
X98970000Y-133680000D03*
X94070000Y-122860000D03*
X94070000Y-126060000D03*
X98970000Y-122860000D03*
X98970000Y-126060000D03*
X94070000Y-115240000D03*
X94070000Y-118440000D03*
X98970000Y-115240000D03*
X98970000Y-118440000D03*
X94070000Y-107620000D03*
X94070000Y-110820000D03*
X98970000Y-107620000D03*
X98970000Y-110820000D03*
X94070000Y-100000000D03*
X94070000Y-103200000D03*
X98970000Y-100000000D03*
X98970000Y-103200000D03*
X94070000Y-92380000D03*
X94070000Y-95580000D03*
X98970000Y-92380000D03*
X98970000Y-95580000D03*
X94070000Y-84760000D03*
X94070000Y-87960000D03*
X98970000Y-84760000D03*
X98970000Y-87960000D03*
X94070000Y-77140000D03*
X94070000Y-80340000D03*
X98970000Y-77140000D03*
X98970000Y-80340000D03*
X85180000Y-145720000D03*
X85180000Y-148920000D03*
X90080000Y-145720000D03*
X90080000Y-148920000D03*
X85180000Y-138100000D03*
X85180000Y-141300000D03*
X90080000Y-138100000D03*
X90080000Y-141300000D03*
X85180000Y-130480000D03*
X85180000Y-133680000D03*
X90080000Y-130480000D03*
X90080000Y-133680000D03*
X85180000Y-122860000D03*
X85180000Y-126060000D03*
X90080000Y-122860000D03*
X90080000Y-126060000D03*
X85180000Y-115240000D03*
X85180000Y-118440000D03*
X90080000Y-115240000D03*
X90080000Y-118440000D03*
X85180000Y-107620000D03*
X85180000Y-110820000D03*
X90080000Y-107620000D03*
X90080000Y-110820000D03*
X85180000Y-100000000D03*
X85180000Y-103200000D03*
X90080000Y-100000000D03*
X90080000Y-103200000D03*
X85180000Y-92380000D03*
X85180000Y-95580000D03*
X90080000Y-92380000D03*
X90080000Y-95580000D03*
X85180000Y-84760000D03*
X85180000Y-87960000D03*
X90080000Y-84760000D03*
X90080000Y-87960000D03*
X85180000Y-77140000D03*
X85180000Y-80340000D03*
X90080000Y-77140000D03*
X90080000Y-80340000D03*
X76290000Y-145720000D03*
X76290000Y-148920000D03*
X81190000Y-145720000D03*
X81190000Y-148920000D03*
X76290000Y-138100000D03*
X76290000Y-141300000D03*
X81190000Y-138100000D03*
X81190000Y-141300000D03*
X76290000Y-130480000D03*
X76290000Y-133680000D03*
X81190000Y-130480000D03*
X81190000Y-133680000D03*
X76290000Y-122860000D03*
X76290000Y-126060000D03*
X81190000Y-122860000D03*
X81190000Y-126060000D03*
X76290000Y-115240000D03*
X76290000Y-118440000D03*
X81190000Y-115240000D03*
X81190000Y-118440000D03*
X76290000Y-107620000D03*
X76290000Y-110820000D03*
X81190000Y-107620000D03*
X81190000Y-110820000D03*
X76380000Y-100000000D03*
X76380000Y-103200000D03*
X81280000Y-100000000D03*
X81280000Y-103200000D03*
X76290000Y-92380000D03*
X76290000Y-95580000D03*
X81190000Y-92380000D03*
X81190000Y-95580000D03*
X76290000Y-84760000D03*
X76290000Y-87960000D03*
X81190000Y-84760000D03*
X81190000Y-87960000D03*
X76290000Y-77140000D03*
X76290000Y-80340000D03*
X81190000Y-77140000D03*
X81190000Y-80340000D03*
M02*
